<?xml version="1.0" encoding="UTF-8" standalone="no"?>
<!DOCTYPE svg PUBLIC "-//W3C//DTD SVG 1.1//EN"
 "http://www.w3.org/Graphics/SVG/1.1/DTD/svg11.dtd">
<!-- Generated by graphviz version 2.44.0 (0)
 -->
<!-- Title: GG Pages: 1 -->
<svg width="298pt" height="116pt"
 viewBox="0.00 0.00 297.79 116.00" xmlns="http://www.w3.org/2000/svg" xmlns:xlink="http://www.w3.org/1999/xlink">
<g id="graph0" class="graph" transform="scale(1 1) rotate(0) translate(4 112)">
<title>GG</title>
<!-- libspatialite -->
<g id="node1" class="node">
<title>libspatialite</title>
<ellipse fill="none" stroke="#64748b" cx="146.79" cy="-90" rx="43.62" ry="18"/>
<text text-anchor="middle" x="146.79" y="-87.5" font-family="Times-Roman" font-size="10.00" fill="#64748b">libspatialite</text>
</g>
<!-- SQLite3 -->
<g id="node2" class="node">
<title>SQLite3</title>
<ellipse fill="none" stroke="#64748b" cx="31.79" cy="-18" rx="31.58" ry="18"/>
<text text-anchor="middle" x="31.79" y="-15.5" font-family="Times-Roman" font-size="10.00" fill="#64748b">SQLite3</text>
</g>
<!-- libspatialite&#45;&gt;SQLite3 -->
<g id="edge1" class="edge">
<title>libspatialite&#45;&gt;SQLite3</title>
<path fill="none" stroke="#64748b" d="M123.24,-74.67C105.31,-63.75 80.53,-48.67 61.28,-36.95"/>
<polygon fill="#64748b" stroke="#64748b" points="62.96,-33.88 52.6,-31.67 59.33,-39.86 62.96,-33.88"/>
</g>
<!-- geos -->
<g id="node3" class="node">
<title>geos</title>
<ellipse fill="none" stroke="#64748b" cx="108.79" cy="-18" rx="27" ry="18"/>
<text text-anchor="middle" x="108.79" y="-15.5" font-family="Times-Roman" font-size="10.00" fill="#64748b">geos</text>
</g>
<!-- libspatialite&#45;&gt;geos -->
<g id="edge2" class="edge">
<title>libspatialite&#45;&gt;geos</title>
<path fill="none" stroke="#64748b" d="M137.59,-72.05C133.04,-63.68 127.46,-53.4 122.43,-44.13"/>
<polygon fill="#64748b" stroke="#64748b" points="125.49,-42.43 117.64,-35.31 119.34,-45.77 125.49,-42.43"/>
</g>
<!-- libiconv -->
<g id="node4" class="node">
<title>libiconv</title>
<ellipse fill="none" stroke="#64748b" cx="185.79" cy="-18" rx="32.25" ry="18"/>
<text text-anchor="middle" x="185.79" y="-15.5" font-family="Times-Roman" font-size="10.00" fill="#64748b">libiconv</text>
</g>
<!-- libspatialite&#45;&gt;libiconv -->
<g id="edge3" class="edge">
<title>libspatialite&#45;&gt;libiconv</title>
<path fill="none" stroke="#64748b" d="M156.23,-72.05C160.9,-63.68 166.62,-53.4 171.78,-44.13"/>
<polygon fill="#64748b" stroke="#64748b" points="174.89,-45.75 176.7,-35.31 168.78,-42.34 174.89,-45.75"/>
</g>
<!-- zlib -->
<g id="node5" class="node">
<title>zlib</title>
<ellipse fill="none" stroke="#64748b" cx="262.79" cy="-18" rx="27" ry="18"/>
<text text-anchor="middle" x="262.79" y="-15.5" font-family="Times-Roman" font-size="10.00" fill="#64748b">zlib</text>
</g>
<!-- libspatialite&#45;&gt;zlib -->
<g id="edge4" class="edge">
<title>libspatialite&#45;&gt;zlib</title>
<path fill="none" stroke="#64748b" d="M170.26,-74.83C188.86,-63.61 214.91,-47.89 234.63,-35.99"/>
<polygon fill="#64748b" stroke="#64748b" points="236.45,-38.98 243.2,-30.82 232.83,-32.99 236.45,-38.98"/>
</g>
</g>
</svg>
